<svg width="65" height="67" viewBox="0 0 65 67" fill="none" xmlns="http://www.w3.org/2000/svg">
<path d="M32.5002 10.7479L39.6773 22.3333H25.1877L32.5002 10.7479ZM32.5002 2.79164C32.035 2.81222 31.5817 2.95027 31.1803 3.19365C30.7789 3.43703 30.4416 3.7783 30.1981 4.18747L17.8752 23.7291C17.6713 24.1644 17.5654 24.6416 17.5654 25.125C17.5654 25.6084 17.6713 26.0855 17.8752 26.5208C18.0983 26.9484 18.4309 27.3046 18.8368 27.5507C19.2427 27.7969 19.7064 27.9234 20.1773 27.9166H44.6877C45.153 27.8961 45.6062 27.758 46.0076 27.5146C46.409 27.2713 46.7463 26.93 46.9898 26.5208C47.2576 26.1076 47.4006 25.6219 47.4006 25.125C47.4006 24.6281 47.2576 24.1423 46.9898 23.7291L34.8023 4.18747C34.5793 3.75992 34.2467 3.40367 33.8407 3.15754C33.4348 2.91142 32.9711 2.78485 32.5002 2.79164Z" fill="black" fill-opacity="0.3"/>
<path d="M58.2292 60.0208H39.2708C38.5525 60.0208 37.8637 59.7266 37.3558 59.2031C36.8478 58.6796 36.5625 57.9695 36.5625 57.2291V37.6874C36.5625 36.947 36.8478 36.237 37.3558 35.7134C37.8637 35.1899 38.5525 34.8958 39.2708 34.8958H58.2292C58.9475 34.8958 59.6363 35.1899 60.1442 35.7134C60.6522 36.237 60.9375 36.947 60.9375 37.6874V57.2291C60.9375 57.9695 60.6522 58.6796 60.1442 59.2031C59.6363 59.7266 58.9475 60.0208 58.2292 60.0208ZM41.9792 54.4374H55.5208V40.4791H41.9792V54.4374Z" fill="black" fill-opacity="0.3"/>
<path d="M17.6042 39.0833C19.2111 39.0833 20.782 39.5745 22.1182 40.4948C23.4543 41.415 24.4957 42.723 25.1107 44.2534C25.7257 45.7837 25.8866 47.4676 25.5731 49.0922C25.2595 50.7168 24.4857 52.2091 23.3494 53.3804C22.2131 54.5516 20.7654 55.3493 19.1893 55.6724C17.6132 55.9956 15.9795 55.8297 14.4949 55.1958C13.0102 54.5619 11.7413 53.4885 10.8485 52.1112C9.9557 50.734 9.47917 49.1148 9.47917 47.4583C9.47917 45.2371 10.3352 43.1069 11.8589 41.5363C13.3827 39.9657 15.4493 39.0833 17.6042 39.0833ZM17.6042 33.5C14.9259 33.5 12.3077 34.3186 10.0808 35.8524C7.85391 37.3862 6.11824 39.5662 5.0933 42.1167C4.06837 44.6673 3.8002 47.4738 4.32271 50.1815C4.84521 52.8891 6.13493 55.3763 8.02877 57.3284C9.9226 59.2805 12.3355 60.6099 14.9623 61.1485C17.5892 61.687 20.3119 61.4106 22.7863 60.3542C25.2608 59.2977 27.3757 57.5086 28.8637 55.2132C30.3516 52.9177 31.1458 50.219 31.1458 47.4583C31.1458 45.6253 30.7956 43.8102 30.115 42.1167C29.4345 40.4232 28.437 38.8845 27.1796 37.5883C25.9221 36.2921 24.4293 35.264 22.7863 34.5625C21.1434 33.861 19.3825 33.5 17.6042 33.5Z" fill="black" fill-opacity="0.3"/>
</svg>
