<svg width="67" height="69" viewBox="0 0 67 69" fill="none" xmlns="http://www.w3.org/2000/svg">
<path d="M46.8773 40.3757L61.4232 10.7997M43.8294 37.3011L58.3735 7.7275M37.939 41.0037L37.5315 54.7493L46.4346 49.557M8.37305 55.4978H33.382M8.37305 46.4748H27.9783M1 37.8612H35.7712M55.7629 37.8612H59.7665M1 22.9074H43.1653M59.7665 29.7651V57.3316C59.7689 58.7293 59.5786 60.1139 59.2067 61.4065C58.8348 62.6991 58.2884 63.8742 57.5989 64.8649C56.9093 65.8555 56.0901 66.6423 55.1879 67.1802C54.2857 67.7181 53.3183 67.9967 52.3408 68H8.46088C7.48312 68.0029 6.51452 67.7304 5.61044 67.198C4.70635 66.6655 3.88448 65.8836 3.19179 64.8968C2.4991 63.9101 1.94916 62.7379 1.57338 61.4471C1.19761 60.1564 1.00337 58.7724 1.00176 57.3743V21.2721C0.999447 19.8742 1.18975 18.4893 1.56179 17.1966C1.93382 15.9039 2.48032 14.7286 3.17005 13.7379C3.85978 12.7472 4.67924 11.9605 5.58162 11.4228C6.48401 10.885 7.45164 10.6067 8.42926 10.6037H49.2489M39.8082 37.1981L57.3317 1.56561C57.4736 1.27694 57.6899 1.08065 57.933 1.01989C58.1761 0.959128 58.4262 1.03886 58.6282 1.24156L58.6299 1.24407L65.6024 8.26506C65.7028 8.36538 65.7883 8.49302 65.8541 8.64067C65.9199 8.78832 65.9647 8.95307 65.9859 9.1255C66.0071 9.29794 66.0043 9.47465 65.9777 9.64555C65.9511 9.81644 65.9012 9.97815 65.8308 10.1214L65.8291 10.1239L48.3038 45.7564C48.1616 46.0439 47.9455 46.2392 47.7029 46.2995C47.4602 46.3597 47.2108 46.2801 47.0091 46.0779H47.0056L40.0331 39.0569C39.9329 38.956 39.8476 38.8278 39.7822 38.6797C39.7167 38.5316 39.6723 38.3664 39.6516 38.1937C39.6309 38.021 39.6342 37.8442 39.6614 37.6733C39.6885 37.5025 39.7373 37.341 39.8082 37.1981Z" stroke="black" stroke-width="0.5" stroke-linecap="round" stroke-linejoin="round"/>
</svg>
