<svg width="70" height="69" viewBox="0 0 70 69" fill="none" xmlns="http://www.w3.org/2000/svg">
<path d="M33.5531 68.0001C33.5531 68.0001 27.5758 65.3992 23.3961 63.8796C20.6581 62.8745 21.0448 58.3246 22.635 56.6131C24.0067 55.2885 25.0547 53.6744 25.7 51.8928C26.3453 50.1112 26.5709 48.2085 26.36 46.3285C26.4768 45.0974 26.327 43.8558 25.9204 42.6858C25.5138 41.5159 24.8596 40.4442 24.0011 39.5415C23.1426 38.6388 22.0993 37.9258 20.9401 37.4494C19.7809 36.973 18.5322 36.7441 17.2765 36.7779C16.0208 36.7445 14.7722 36.9738 13.6131 37.4505C12.4541 37.9273 11.411 38.6407 10.5528 39.5437C9.69455 40.4466 9.04072 41.5186 8.63449 42.6887C8.22827 43.8588 8.07888 45.1004 8.1962 46.3316C7.98473 48.2121 8.21016 50.1153 8.85545 51.8975C9.50075 53.6797 10.549 55.2942 11.9211 56.6192C13.5083 58.3277 13.8981 62.8776 11.157 63.8826C6.98033 65.4053 1 68.0001 1 68.0001" fill="#FFDDA1"/>
<path d="M33.5531 68.0001C33.5531 68.0001 27.5758 65.3992 23.3961 63.8796C20.6581 62.8745 21.0448 58.3246 22.635 56.6131C24.0067 55.2885 25.0547 53.6744 25.7 51.8928C26.3453 50.1112 26.5709 48.2085 26.36 46.3285C26.4768 45.0974 26.327 43.8558 25.9204 42.6858C25.5138 41.5159 24.8596 40.4442 24.0011 39.5415C23.1426 38.6388 22.0993 37.9258 20.9401 37.4494C19.7809 36.973 18.5322 36.7441 17.2765 36.7779C16.0208 36.7445 14.7722 36.9738 13.6131 37.4505C12.4541 37.9273 11.411 38.6407 10.5528 39.5437C9.69455 40.4466 9.04072 41.5186 8.63449 42.6887C8.22827 43.8588 8.07888 45.1004 8.1962 46.3316C7.98473 48.2121 8.21016 50.1153 8.85545 51.8975C9.50075 53.6797 10.549 55.2942 11.9211 56.6192C13.5083 58.3277 13.8981 62.8776 11.157 63.8826C6.98033 65.4053 1 68.0001 1 68.0001" stroke="#191919" stroke-linecap="round" stroke-linejoin="round"/>
<path d="M69.0635 27.2184C69.0627 27.9909 68.7504 28.7314 68.1952 29.2773C67.64 29.8233 66.8874 30.1299 66.1027 30.1299H49.8293L39.4712 38.8704V30.1299H36.5104C35.7262 30.1291 34.9744 29.8221 34.4199 29.2763C33.8654 28.7304 33.5536 27.9904 33.5527 27.2184V3.91451C33.5527 2.30346 34.8769 1 36.5104 1H66.1027C67.7393 1 69.0635 2.30346 69.0635 3.91451V27.2184Z" fill="#78EB7B"/>
<path d="M36.5104 1C36.1217 1 35.7369 1.07541 35.3778 1.22191C35.0188 1.36842 34.6926 1.58315 34.4179 1.85383C34.1432 2.1245 33.9254 2.44582 33.777 2.79941C33.6285 3.15299 33.5523 3.53192 33.5527 3.91451V27.2184C33.5588 27.6673 33.672 28.1084 33.8832 28.5063C34.0944 28.9041 34.3977 29.2475 34.7686 29.5086L63.7298 1H36.5104Z" fill="#C9F7CA"/>
<path d="M51.305 21.3925V24.3039M51.305 6.82598V9.73745M69.0635 27.2184C69.0627 27.9909 68.7504 28.7314 68.1952 29.2773C67.64 29.8233 66.8874 30.1299 66.1027 30.1299H49.8293L39.4712 38.8704V30.1299H36.5104C35.7262 30.1291 34.9744 29.8221 34.4199 29.2763C33.8654 28.7304 33.5536 27.9904 33.5527 27.2184V3.91451C33.5527 2.30346 34.8769 1 36.5104 1H66.1027C67.7393 1 69.0635 2.30346 69.0635 3.91451V27.2184Z" stroke="#191919" stroke-linecap="round" stroke-linejoin="round"/>
<path d="M45.39 21.3927H54.2692C54.6659 21.4053 55.0611 21.3393 55.4313 21.1986C55.8015 21.0579 56.1392 20.8454 56.4244 20.5736C56.7095 20.3019 56.9362 19.9765 57.0911 19.6168C57.2459 19.257 57.3257 18.8704 57.3257 18.4797C57.3257 18.089 57.2459 17.7023 57.0911 17.3426C56.9362 16.9829 56.7095 16.6575 56.4244 16.3858C56.1392 16.114 55.8015 15.9015 55.4313 15.7608C55.0611 15.6201 54.6659 15.5541 54.2692 15.5667H48.3477C47.5628 15.5667 46.8101 15.2598 46.2552 14.7135C45.7002 14.1672 45.3884 13.4263 45.3884 12.6537C45.3884 11.8811 45.7002 11.1402 46.2552 10.5939C46.8101 10.0476 47.5628 9.74072 48.3477 9.74072H57.2269" stroke="#191919" stroke-linecap="round" stroke-linejoin="round"/>
</svg>
