<svg width="65" height="67" viewBox="0 0 65 67" fill="none" xmlns="http://www.w3.org/2000/svg">
<path d="M55.1143 24.9098L54.1225 24.3411C53.9687 24.2528 53.8929 24.2085 53.8184 24.1625C53.0787 23.7058 52.4555 23.0749 52.0005 22.32C51.9548 22.244 51.9117 22.1644 51.8234 22.007C51.7354 21.8497 51.6907 21.77 51.6495 21.6912C51.2417 20.9058 51.0209 20.0306 51.0077 19.1398C51.0063 19.0503 51.0066 18.9588 51.0096 18.7769L51.0291 17.5897C51.0599 15.6899 51.0756 14.737 50.8165 13.8819C50.5865 13.1223 50.2017 12.4227 49.6876 11.829C49.1067 11.1579 48.3023 10.6791 46.6922 9.7227L45.3548 8.9283C43.7493 7.97461 42.9463 7.4976 42.0937 7.31575C41.3397 7.15486 40.5613 7.16232 39.8101 7.33618C38.9618 7.53244 38.1688 8.02187 36.5839 9.00021L36.5747 9.00465L35.6165 9.59609C35.4651 9.68961 35.3884 9.73674 35.3123 9.78026C34.5586 10.2122 33.7174 10.451 32.8553 10.4795C32.7687 10.4824 32.6801 10.4824 32.5035 10.4824C32.328 10.4824 32.2357 10.4824 32.149 10.4795C31.2853 10.4509 30.4422 10.2108 29.6874 9.77708C29.6113 9.73336 29.536 9.68585 29.3843 9.59188L28.4199 8.9951C26.8239 8.0075 26.0248 7.51295 25.172 7.31575C24.4175 7.14127 23.6366 7.13644 22.8798 7.29939C22.0251 7.48339 21.2219 7.96395 19.6153 8.92503L19.6082 8.9283L18.2874 9.71845L18.2728 9.72766C16.6807 10.6801 15.8828 11.1575 15.3067 11.8259C14.7955 12.419 14.4133 13.1175 14.1846 13.8751C13.9261 14.7314 13.9399 15.6863 13.971 17.595L13.9904 18.7805C13.9933 18.96 13.9984 19.0493 13.9971 19.1376C13.9843 20.0302 13.7607 20.9072 13.3514 21.6939C13.3109 21.7717 13.2673 21.8495 13.1802 22.0049C13.0931 22.1605 13.0508 22.2378 13.0057 22.3129C12.5487 23.0718 11.9225 23.7064 11.1782 24.1639C11.1046 24.2091 11.027 24.2527 10.8745 24.3397L9.8953 24.8991C8.26604 25.8297 7.45162 26.2955 6.85901 26.9582C6.33473 27.5446 5.93869 28.2399 5.69695 28.9976C5.42368 29.8538 5.42389 30.8138 5.42814 32.7337L5.43158 34.3032C5.43578 36.2101 5.44155 37.1632 5.71544 38.0136C5.95776 38.7659 6.3509 39.4574 6.87223 40.04C7.46151 40.6989 8.26783 41.1617 9.88471 42.0888L10.8552 42.6455C11.0204 42.7401 11.1035 42.7867 11.1832 42.8364C11.9207 43.294 12.542 43.9269 12.9951 44.6815C13.044 44.763 13.091 44.8476 13.185 45.017C13.2778 45.184 13.3252 45.2674 13.3682 45.3512C13.7654 46.1264 13.9781 46.9879 13.9926 47.8645C13.9941 47.9591 13.9928 48.0549 13.9896 48.2475L13.971 49.3851C13.9397 51.3005 13.926 52.2592 14.186 53.1179C14.4161 53.8775 14.8006 54.5771 15.3146 55.1709C15.8956 55.842 16.7011 56.3205 18.3112 57.2769L19.6484 58.0708C21.254 59.0248 22.0565 59.501 22.9089 59.683C23.6631 59.8438 24.4417 59.8377 25.1932 59.6638C26.0424 59.4672 26.8382 58.9762 28.4277 57.9949L29.386 57.4036C29.5376 57.3098 29.6145 57.2629 29.6904 57.2194C30.4441 56.7875 31.2845 56.5474 32.1466 56.519C32.2332 56.5162 32.3218 56.5162 32.4984 56.5162C32.6755 56.5162 32.7638 56.5162 32.8507 56.519C33.7144 56.5477 34.5602 56.7886 35.315 57.2222C35.3814 57.2604 35.448 57.3017 35.5647 57.374L36.5836 58.0044C38.1796 58.9921 38.9772 59.4851 39.8301 59.6825C40.5844 59.857 41.366 59.8639 42.123 59.7012C42.9772 59.5172 43.7821 59.0356 45.3879 58.075L46.7285 57.273C48.3215 56.3199 49.1202 55.842 49.6966 55.1734C50.2079 54.5804 50.5906 53.8822 50.8192 53.1246C51.0759 52.2745 51.0605 51.327 51.0296 49.4457L51.0096 48.2188C51.0066 48.0393 51.0063 47.9499 51.0077 47.8617C51.0204 46.9689 51.2403 46.0915 51.6495 45.3048C51.6902 45.2269 51.734 45.1485 51.8207 44.9936C51.9079 44.8383 51.9531 44.7607 51.9984 44.6856C52.4553 43.9266 53.082 43.2915 53.8265 42.8339C53.8991 42.7893 53.9741 42.7465 54.1228 42.6617L54.1279 42.6592L55.107 42.0997C56.7363 41.1693 57.5524 40.7028 58.1449 40.04C58.6693 39.4538 59.0647 38.7592 59.3065 38.0018C59.5782 37.1507 59.576 36.1962 59.572 34.2987L59.5684 32.6957C59.5641 30.7884 59.5619 29.8356 59.2881 28.9853C59.0457 28.233 58.6503 27.5415 58.129 26.9587C57.5404 26.3006 56.7328 25.8376 55.1192 24.9122L55.1143 24.9098Z" stroke="black" stroke-opacity="0.3" stroke-width="2" stroke-linecap="round" stroke-linejoin="round"/>
<path d="M21.6675 33.5C21.6675 39.6671 26.5177 44.6667 32.5007 44.6667C38.484 44.6667 43.3341 39.6671 43.3341 33.5C43.3341 27.3327 38.484 22.3333 32.5007 22.3333C26.5177 22.3333 21.6675 27.3327 21.6675 33.5Z" stroke="black" stroke-opacity="0.3" stroke-width="2" stroke-linecap="round" stroke-linejoin="round"/>
</svg>
